<?xml version="1.0" encoding="UTF-8"?>
<svg id="Layer_2" data-name="Layer 2" xmlns="http://www.w3.org/2000/svg" viewBox="0 0 841.89 595.28">
  <defs>
    <style>
      .cls-1 {
        fill: #000;
        stroke-width: 0px;
      }
    </style>
  </defs>
  <g>
    <path class="cls-1" d="M494.1,230.31c-15.89,0-28.77,12.88-28.77,28.77s12.88,28.77,28.77,28.77,28.77-12.88,28.77-28.77-12.88-28.77-28.77-28.77ZM514.6,267.23c-.58-17.18-10.93-29.04-10.93-29.04,0,0,16.88,9.51,11.06,30.47l-.13-1.43Z"/>
    <g>
      <path class="cls-1" d="M494.1,188.61c-39.16,0-68.72,30.13-68.72,69.56,0,9.29,1.38,17.89,3.93,25.67l19.63-12.74,4.2-2.53c-.71-3.05-1.11-6.22-1.11-9.49,0-23.23,18.83-42.06,42.06-42.06s42.06,18.83,42.06,42.06-18.83,42.06-42.06,42.06c-12.53,0-23.74-5.51-31.45-14.2l-2.34,1.66-21.5,13.95c12.28,16.94,32.04,26.82,55.3,26.82,41.08,0,68.72-30.34,68.72-71.21s-29.75-69.56-68.72-69.56Z"/>
      <path class="cls-1" d="M411.66,295.29c.62-3.06.95-6.25.95-9.55,0-17.54-8.25-29.52-22.46-34.89v-.62c12.28-6.19,14.4-15.48,14.4-24.36,0-19.4-11.71-34.88-43.38-34.88h-53.74v135.82h57.58c11.19,0,20.22-2.13,27.33-5.81-.73-1.2-1.32-2.54-1.74-4.02-2.23-7.7,1.34-15.04,9.55-17.41,8.04-2.32,15.13,1.94,17.36,9.64.69,2.4.82,4.73.44,6.88l20.86-13.53c-4-5.52-7.21-11.8-9.49-18.72l-17.66,11.46ZM334.3,213.7h23.22c15.55,0,20.92,5.78,20.92,16.52,0,9.7-5.95,16.51-13.05,16.51h-31.09v-33.03ZM361.94,304.11h-27.64v-39.01h28.22c16.89,0,22.84,7.85,22.84,20.02,0,13.42-7.1,18.99-23.42,18.99Z"/>
    </g>
  </g>
  <g>
    <path class="cls-1" d="M299.54,376.47h-33.31c1.35,5.55,6.91,9.47,14.31,9.47,5.27,0,9.96-1.71,12.46-4.34h5.91c-2.99,6.83-9.97,11.32-18.44,11.32-11.1,0-19.43-8.19-19.43-19s8.33-19.01,19.36-19.01,19.29,8.11,19.29,19.15c0,.78-.07,1.64-.14,2.42ZM266.22,371.27h28.33c-1.28-5.55-7.05-9.4-14.17-9.4s-12.81,3.84-14.17,9.4Z"/>
    <path class="cls-1" d="M341.32,340.81v51.25h-4.84v-9.33c-2.71,6.12-8.33,10.18-15.38,10.18-10.39,0-18.15-8.19-18.15-19s7.76-19.01,18.15-19.01c7.05,0,12.67,4.06,15.38,10.18v-24.27h4.84ZM336.48,373.91c0-6.91-6.12-12.1-14.24-12.1s-14.24,5.2-14.24,12.1,6.05,12.1,14.24,12.1,14.24-5.2,14.24-12.1Z"/>
    <path class="cls-1" d="M347.15,344.72c0-2.21,1.92-3.92,4.49-3.92s4.48,1.71,4.48,3.92-1.92,3.84-4.48,3.84-4.49-1.71-4.49-3.84ZM349.22,355.76h4.84v36.3h-4.84v-36.3Z"/>
    <path class="cls-1" d="M370.92,362.52v18.37c0,2.92,1.92,4.34,5.69,4.34h5.41v6.83h-5.84c-6.76,0-10.18-3.27-10.18-9.82v-19.72h-7.83v-6.76h7.83v-9.47l4.91-1.21v10.68h11.82v6.76h-11.82Z"/>
    <path class="cls-1" d="M383.31,373.91c0-10.82,8.33-19.01,19.36-19.01s19.29,8.19,19.29,19.01-8.33,19-19.29,19-19.36-8.19-19.36-19ZM416.91,373.91c0-6.91-6.12-12.1-14.24-12.1s-14.24,5.2-14.24,12.1,6.05,12.1,14.24,12.1,14.24-5.2,14.24-12.1Z"/>
    <path class="cls-1" d="M446.66,355.19v8.33c-8.97,0-14.31,4.27-14.31,11.32v17.23h-4.84v-36.3h4.84v9.61c2.56-6.34,7.69-10.18,14.31-10.18Z"/>
    <path class="cls-1" d="M485.88,355.76v36.3h-4.84v-9.33c-2.71,6.12-8.33,10.18-15.38,10.18-10.39,0-18.15-8.19-18.15-19s7.76-19.01,18.15-19.01c7.05,0,12.67,4.06,15.38,10.18v-9.32h4.84ZM481.04,373.91c0-6.91-6.12-12.1-14.24-12.1s-14.24,5.2-14.24,12.1,6.05,12.1,14.24,12.1,14.24-5.2,14.24-12.1Z"/>
    <path class="cls-1" d="M545.83,378.82c0,7.62-5.56,13.24-12.91,13.24h-23.9v-49.12h23.1c6.75,0,11.91,5.2,11.91,12.31,0,4.84-2.52,8.97-6.42,10.89,4.96,1.85,8.21,6.83,8.21,12.67ZM513.93,350.06v13.38h17.14c4.5,0,7.94-2.85,7.94-6.91,0-3.84-3.31-6.48-7.94-6.48h-17.14ZM540.74,377.54c0-4.56-3.64-7.76-8.8-7.76h-18v15.16h18c5.16,0,8.8-3.06,8.8-7.4Z"/>
    <path class="cls-1" d="M548.82,387.86c0-2.71,2.12-4.77,4.96-4.77s4.96,2.06,4.96,4.77-2.18,4.7-4.96,4.7-4.96-2.06-4.96-4.7Z"/>
    <path class="cls-1" d="M560.4,367.5c0-14.45,10.33-25.41,23.9-25.41s23.9,10.96,23.9,25.41-10.26,25.41-23.9,25.41-23.9-10.96-23.9-25.41ZM603.16,367.5c0-10.32-8.14-18.15-18.87-18.15s-18.8,7.83-18.8,18.15,8.08,18.15,18.8,18.15,18.87-7.83,18.87-18.15Z"/>
  </g>
</svg>