<?xml version="1.0" encoding="UTF-8"?>
<svg id="Layer_1" data-name="Layer 1" xmlns="http://www.w3.org/2000/svg" viewBox="0 0 841.89 595.28">
  <defs>
    <style>
      .cls-1 {
        fill: #63566b;
      }

      .cls-1, .cls-2, .cls-3, .cls-4, .cls-5 {
        stroke: #000;
        stroke-miterlimit: 10;
        stroke-width: .6px;
      }

      .cls-2 {
        fill: #00556c;
      }

      .cls-3 {
        fill: #003e4a;
      }

      .cls-4 {
        fill: #0783a0;
      }

      .cls-5 {
        fill: #e8c299;
      }
    </style>
  </defs>
  <rect class="cls-4" x="224.97" y="171.77" width="190.5" height="281.4" transform="translate(-107.36 180.74) rotate(-27.17)"/>
  <g>
    <path class="cls-3" d="M598.14,127.61l-241.73-20.22c-6.1-.51-11.46,4.02-11.97,10.12l-2.09,25.02-1.34-.11-28.42,339.73,267.6,22.38,28.42-339.73-2.45-.2,2.09-25.02c.51-6.1-4.02-11.46-10.12-11.97Z"/>
    <g>
      <rect class="cls-4" x="327.46" y="128.48" width="264.73" height="63.67" rx="10.21" ry="10.21" transform="translate(14.96 -37.77) rotate(4.78)"/>
      <rect class="cls-5" x="345.86" y="68.58" width="225.75" height="193.64" transform="translate(12.07 -30.27) rotate(3.83)"/>
      <path class="cls-1" d="M326.22,153.52l88.28,7.38c4.47.37,8.65,2.39,11.69,5.68,6.16,6.67,18.54,17.64,33.71,18.29,14.25.61,25.56-6.82,31.72-12.07,3.69-3.15,8.46-4.74,13.3-4.34l88.9,7.44-28.42,339.73-267.6-22.38,28.42-339.73Z"/>
    </g>
  </g>
  <g>
    <rect class="cls-2" x="110.01" y="230.26" width="590.7" height="35.37" rx="17.68" ry="17.68" transform="translate(-69.73 256.93) rotate(-32.54)"/>
    <path class="cls-2" d="M327.64,440.43l-47.81-101.35,5.29-8.26c3.65-5.7,10.45-8.54,17.08-7.13l9.65,2.05,47.7,96.27-31.92,18.43Z"/>
    <ellipse class="cls-3" cx="347.62" cy="440.29" rx="25.97" ry="14.02" transform="translate(-182.25 256.07) rotate(-32.54)"/>
    <ellipse class="cls-2" cx="349.25" cy="442.85" rx="25.97" ry="10.99" transform="translate(-183.36 257.34) rotate(-32.54)"/>
    <path class="cls-3" d="M202.94,398.05c-16.58-6.43-19.02-29.82-19.02-29.82l-5.64,3.6s2.74,22.06,19.02,29.82l5.64-3.6Z"/>
    <path class="cls-3" d="M208.15,394.73c-16.58-6.43-19.02-29.82-19.02-29.82l-5.64,3.6s2.74,22.06,19.02,29.82l5.64-3.6Z"/>
    <path class="cls-3" d="M213.5,391.32c-16.58-6.43-19.02-29.82-19.02-29.82l-5.64,3.6s2.74,22.06,19.02,29.82l5.64-3.6Z"/>
    <path class="cls-3" d="M218.77,387.96c-16.58-6.43-19.02-29.82-19.02-29.82l-5.64,3.6s2.74,22.06,19.02,29.82l5.64-3.6Z"/>
    <path class="cls-3" d="M223.72,384.79c-16.58-6.43-19.02-29.82-19.02-29.82l-5.64,3.6s2.74,22.06,19.02,29.82l5.64-3.6Z"/>
    <path class="cls-3" d="M228.33,381.85c-16.58-6.43-19.02-29.82-19.02-29.82l-5.64,3.6s2.74,22.06,19.02,29.82l5.64-3.6Z"/>
    <path class="cls-3" d="M233.62,378.48c-16.58-6.43-19.02-29.82-19.02-29.82l-5.64,3.6s2.74,22.06,19.02,29.82l5.64-3.6Z"/>
    <path class="cls-3" d="M238.71,375.23c-16.58-6.43-19.02-29.82-19.02-29.82l-5.64,3.6s2.74,22.06,19.02,29.82l5.64-3.6Z"/>
    <path class="cls-3" d="M339.3,381.09c-17.37-3.71-32.54,14.79-32.54,14.79l-3.12-6.53s14.82-16.47,32.66-14.02l2.99,5.76Z"/>
    <path class="cls-3" d="M336.55,375.66c-17.37-3.71-32.54,14.79-32.54,14.79l-3.12-6.53s14.82-16.47,32.66-14.02l2.99,5.76Z"/>
    <path class="cls-3" d="M333.81,370.04c-17.37-3.71-32.54,14.79-32.54,14.79l-3.39-7.45s15.09-15.54,32.93-13.1l2.99,5.76Z"/>
    <path class="cls-3" d="M331.32,365.05c-17.03-4.03-32.49,14.38-32.49,14.38l-3.01-6.47s15.03-16.72,32.53-13.94l2.97,6.04Z"/>
    <path class="cls-3" d="M341.9,386.67c-17.29-3.75-32.66,14.71-32.66,14.71l-3.02-6.29s15.19-16.85,32.95-14.37l2.73,5.95Z"/>
    <path class="cls-3" d="M344.58,392.29c-17.29-3.75-32.62,14.62-32.62,14.62l-2.88-5.78s14.72-17.37,32.47-14.89l3.02,6.04Z"/>
  </g>
</svg>