<?xml version="1.0" encoding="UTF-8"?>
<svg id="Layer_1" data-name="Layer 1" xmlns="http://www.w3.org/2000/svg" xmlns:xlink="http://www.w3.org/1999/xlink" viewBox="0 0 841.89 595.28">
  <defs>
    <style>
      .cls-1, .cls-2 {
        fill: #b58d64;
      }

      .cls-3 {
        fill: #63566b;
      }

      .cls-3, .cls-4, .cls-5, .cls-2, .cls-6, .cls-7, .cls-8, .cls-9 {
        stroke: #000;
        stroke-miterlimit: 10;
        stroke-width: .6px;
      }

      .cls-4 {
        fill: #00556c;
      }

      .cls-5 {
        fill: #003e4a;
      }

      .cls-10 {
        clip-path: url(#clippath-2);
      }

      .cls-11, .cls-12 {
        stroke-width: 0px;
      }

      .cls-11, .cls-9 {
        fill: none;
      }

      .cls-13 {
        clip-path: url(#clippath-1);
      }

      .cls-14 {
        clip-path: url(#clippath);
      }

      .cls-6 {
        fill: #0783a0;
      }

      .cls-7 {
        fill: #0f2c27;
      }

      .cls-15 {
        clip-path: url(#clippath-3);
      }

      .cls-12, .cls-8 {
        fill: #e8c299;
      }
    </style>
    <clipPath id="clippath">
      <rect class="cls-2" x="480.14" y="125.59" width="139.6" height="125.89" transform="translate(-29.48 235.99) rotate(-23.61)"/>
    </clipPath>
    <clipPath id="clippath-1">
      <path class="cls-9" d="M548.1,184.08c3.62,1.75,7,10.41,7,10.41-3.5,1.82-10.82,3.34-13.32,3.82-.5.1-1-.17-1.21-.63l-3.78-8.65,11.31-4.94Z"/>
    </clipPath>
    <clipPath id="clippath-2">
      <rect class="cls-11" x="194.34" y="163.52" width="445.7" height="227.37"/>
    </clipPath>
    <clipPath id="clippath-3">
      <path class="cls-9" d="M581.89,275.29c7.13,8.32,6.14,33.67,6.14,33.67-10.74.73-30.71-3.48-37.49-5.01-1.36-.31-2.32-1.51-2.32-2.9v-25.76h33.67Z"/>
    </clipPath>
  </defs>
  <g>
    <polygon class="cls-6" points="733.6 356.37 548.25 436.61 428.5 138.96 605.16 62.47 733.6 356.37"/>
    <rect class="cls-2" x="514.03" y="253.29" width="139.14" height="21.46" transform="translate(-56.89 255.78) rotate(-23.61)"/>
    <g>
      <line class="cls-3" x1="662.77" y1="263.66" x2="511.42" y2="326.77"/>
      <line class="cls-3" x1="666.4" y1="275.25" x2="515.05" y2="338.35"/>
      <line class="cls-3" x1="669.69" y1="286.62" x2="518.34" y2="349.72"/>
    </g>
    <g>
      <rect class="cls-1" x="480.14" y="125.59" width="139.6" height="125.89" transform="translate(-29.48 235.99) rotate(-23.61)"/>
      <g class="cls-14">
        <g>
          <path class="cls-4" d="M491.85,50.38l3.78.39s-1.86,18.37,0,24.51c1.85,6.13,2.64,14.48,2.64,14.48l8.24,14.26,38.9,85.72-12.5,5.46s-12.72-17.31-16.84-32.46c-4.12-15.15-7.11-29.36-7.11-29.36l-22.05-63.07,2.32-.81,2.47,5.66s-1.54-20.16.15-24.78Z"/>
          <path class="cls-5" d="M476.89,28.51s12.43,48.48,17.35,52.46l2.14,13.03s-2.17-4.03-5.11-5.6-9.64-8.04-9.64-8.04l3.82,8.75s7.73,5.06,8.69,7.26l6.25,20.92,8.41,34.59s24.33,34.18,27.38,41.15l2.56-.22s-6.69-15.78-13.48-24.78c-6.79-9-12.91-23-16.98-36.06-4.07-13.06-7.19-22.93-7.19-22.93,0,0-2.79-11.04-3.61-20.68s2.32-14.7,2.32-14.7l-3.17-3.11-2.06,4.78-7.89-20.85-2.99-13.53-6.78-12.42Z"/>
          <path class="cls-4" d="M440.63,61.1s-13.55-10.62-29.77-15.99c-16.21-5.37-35.01-16.56-35.01-16.56l-3.76,6.27s31.89,17.38,39.28,17.01c7.39-.37,23.1,10.33,23.1,10.33,0,0-18.82-5.46-29.86-3.49l1.12,2.57s29.11-.56,43.37,12.45c14.26,13.01,70.24,116.34,71.45,127.07l3.94-1.72-26.02-54.58s-20.29-41.56-25.72-45.11-17.96-23.81-17.96-23.81c0,0,7.89.03-3.15-7.2"/>
          <path class="cls-3" d="M513.7,203.73s-2.7-5.71-6.44-12.87-12.75-17.5-15.03-21.31-3.52-20.2-7.75-24.28-17.4-42.63-17.4-42.63c-13.25-14.43-13.34-20.72-14.67-24.22-1.33-3.5-25.22-30.64-25.22-30.64l3.93-1.72,20.72,25.46s-6.72-12.11-7.9-68.09l8.92-3.9s-4.73,40.12-.78,41.67c3.94,1.54,2.19-13.42,21.08-21.26l2.02,4.63s-13.08,9.19-16.13,16.24c-3.05,7.05-.28,19.93-.28,19.93l14.28,31.74-.04,9.73s12.97,22.2,12.48,26.7c-.48,4.5,31.46,73.4,31.46,73.4l-3.26,1.42Z"/>
          <path class="cls-3" d="M456.26,60.6l-2.39,2.47,14.17,22.6-7.75-4.17-1.73,2.59s17.26,18.93,21.78,25.06,7.68,8.22,7.68,8.22l6.03,11.94s.1,18.52,10.38,28.7c10.28,10.18,19.68,42.43,19.68,42.43l6.86-3-8.02-15.08-10.91-26.37-11.69-28.63-3.19-4.97s9.45-13.27,11.01-25.43l-2.28-5.23s-5.97,19.21-9.02,18.3c-3.05-.91-9.64-10.69-9.64-10.69l-14.18-5.27-16.78-33.49Z"/>
          <path class="cls-3" d="M527.27,196.78c-6.99-13.18-13.91-32.13-13.91-32.13-4.45-5.82-9.92-22.08-10.73-25.5-.81-3.42-2.14-6.45-5.87-8.77s-9.19-21.04-9.19-21.04c0,0-20.72-15.32-21.23-20.54-.51-5.22-1.84-9.82-3.79-15.22-1.95-5.41-18.62-28.9-18.62-28.9,0,0-16.46-6.83-25.21-7.23-8.75-.4-24.22-12.43-24.22-12.43l6.29-2.84s9.55,8.55,17.61,10.23c8.06,1.68,20.77,4.71,20.77,4.71l-17.88-26.19,5.26-2.3s35.08,53.49,39.25,58.34c4.16,4.85,5.82,16.11,7.4,17.87s9.37,8.98,10.43,7.97-7.98-22.93-8.1-24.78,6.97-21.43,6.81-30.21l4.05,9.26s-5.16,17.78-5.4,21.28,9.15,25,8.32,29.31c-.84,4.31,5.71,20.24,8.3,22.11,2.59,1.87,5.87,3.77,5.87,3.77,0,0,5.79,26.95,8.14,28.91s5.13,4.26,6.71,12.23,13.36,30.26,13.36,30.26l-4.39,1.79Z"/>
          <path class="cls-5" d="M543.2,190.86s-8.4-25.3-14.15-32.39c-5.75-7.09-11.74-29.56-11.74-29.56l-4.18-20.57,30.76,46.24,4.34,34.08-5.03,2.2Z"/>
          <path class="cls-4" d="M482.65,63.54l-2.29,3.04s14.75,11.12,17.99,16.64c3.25,5.53,8.83,11.77,8.83,11.77l4.87,15.73,36.48,86.78,12.5-5.46s-4.06-21.1-12.38-34.41c-8.32-13.31-16.72-25.17-16.72-25.17l-31.31-59.02-2.17,1.15,2.47,5.66s-13.75-14.82-18.28-16.72Z"/>
          <path class="cls-5" d="M476.76,37.7s27.14,42.05,26.71,48.37l8.1,10.42s-1.48-4.33-.64-7.55.65-12.54.65-12.54l3.82,8.75s-1.53,9.11-.57,11.31l11.11,18.79,19.67,29.66s8.56,41.08,11.6,48.04l-1.9,1.72s-7.03-15.63-9.02-26.72-8.11-25.1-14.93-36.96c-6.82-11.86-11.94-20.85-11.94-20.85,0,0-6.2-9.54-12.72-16.7-6.52-7.16-12.36-8.28-12.36-8.28l-.13-4.44,4.91,1.73-9.95-19.96-7.9-11.39-4.51-13.41Z"/>
          <path class="cls-4" d="M525.31,33.23s1.42-17.16,8.49-32.71c7.07-15.55,11.63-36.94,11.63-36.94l7.16,1.5s-8.91,35.21-14.2,40.38-8.11,23.97-8.11,23.97c0,0,8.78-17.52,17.72-24.28l1.12,2.57s-20.19,20.98-20.33,40.29c-.14,19.3,37.66,130.57,44.71,138.75l-3.94,1.72-22.38-56.17s-16.72-43.12-15.63-49.52-5.27-29.35-5.27-29.35c0,0-5.34,5.8-3.15-7.2"/>
          <path class="cls-3" d="M580.34,183.74s-2.36-5.86-5.07-13.47-4.18-21.24-5.43-25.5-12.44-16.31-12.55-22.18-19.46-41.73-19.46-41.73c-1.59-19.52-6.14-23.86-7.81-27.22s-5.36-39.32-5.36-39.32l-3.93,1.72,4.6,32.5s-4.32-13.16-44.6-52.06l-8.92,3.9s32.65,23.79,31.11,27.73-11.34-7.5-29.92,1.03l2.02,4.63s15.63-3.36,22.87-.81,14.81,13.34,14.81,13.34l13.59,32.04,7.16,6.58s7.48,24.6,11.11,27.3c3.63,2.7,32.49,72.95,32.49,72.95l3.26-1.42Z"/>
          <path class="cls-3" d="M514.33,44.36l3.44-.07,6.96,25.75,2.2-8.52,3.08.49s2.17,25.53,3.6,33,.82,11.22.82,11.22l4.66,12.54s13.52,12.66,14.01,27.11,17.77,43.27,17.77,43.27l-6.86,3-5.62-16.13-11.94-25.92-13.07-28.03-1.48-5.72s-16.16-2.08-26.14-9.19l-2.28-5.23s18.15,8.67,19.56,5.81c1.4-2.86-1.29-14.33-1.29-14.33l5.77-13.98-13.18-35.06Z"/>
          <path class="cls-3" d="M566.02,188.98c-4.93-14.08-14.13-32.03-14.13-32.03-1.25-7.22-9.46-22.28-11.42-25.2-1.96-2.92-3.28-5.95-2.44-10.27s-9.19-21.04-9.19-21.04c0,0,2.83-25.61-.65-29.53-3.48-3.92-5.95-8.02-8.6-13.13s-8.56-33.29-8.56-33.29c0,0,6.17-16.72,11.82-23.41,5.65-6.69,7.33-26.22,7.33-26.22l-6.36,2.69s-.21,12.81-4.45,19.88-10.65,18.44-10.65,18.44l-7.07-30.91-5.26,2.3s15.42,62.08,16.15,68.43,7.87,15.21,8.09,17.57.22,12.97-1.23,13.06-11.41-21.43-12.68-22.78-20.46-9.44-26.8-15.52l4.05,9.26s16.55,8.29,19.29,10.49,12.13,23.7,15.86,26.02,10.97,17.94,10.58,21.11-1.22,6.87-1.22,6.87c0,0,15.85,22.55,15.69,25.61s-.36,6.66,4.42,13.23c4.78,6.57,13.13,30.36,13.13,30.36l4.3-2Z"/>
          <path class="cls-5" d="M550.86,196.65s-12.86-23.35-14.15-32.39c-1.29-9.03-13.72-28.7-13.72-28.7l-12.26-17.04,13.04,53.99,22.06,26.34,5.03-2.2Z"/>
          <path class="cls-4" d="M457.41,82.09l3.78.39s-1.86,18.37,0,24.51c1.85,6.13,2.64,14.48,2.64,14.48l8.24,14.26,38.9,85.72-12.5,5.46s-12.72-17.31-16.84-32.46c-4.12-15.15-7.11-29.36-7.11-29.36l-22.05-63.07,2.32-.81,2.47,5.66s-1.54-20.16.15-24.78Z"/>
          <path class="cls-5" d="M442.45,60.22s12.43,48.48,17.35,52.46l2.14,13.03s-2.17-4.03-5.11-5.6-9.64-8.04-9.64-8.04l3.82,8.75s7.73,5.06,8.69,7.26l6.25,20.92,8.41,34.59s24.33,34.18,27.38,41.15l2.56-.22s-6.69-15.78-13.48-24.78c-6.79-9-12.91-23-16.98-36.06-4.07-13.06-7.19-22.93-7.19-22.93,0,0-2.79-11.04-3.61-20.68-.83-9.64,2.32-14.7,2.32-14.7l-3.17-3.11-2.06,4.78-7.89-20.85-2.99-13.53-6.78-12.42Z"/>
          <path class="cls-4" d="M406.19,92.81s-13.55-10.62-29.77-15.99c-16.21-5.37-35.01-16.56-35.01-16.56l-3.76,6.27s31.89,17.38,39.28,17.01c7.39-.37,23.1,10.33,23.1,10.33,0,0-18.82-5.46-29.86-3.49l1.12,2.57s29.11-.56,43.37,12.45c14.26,13.01,70.24,116.34,71.45,127.07l3.94-1.72-26.02-54.58s-20.29-41.56-25.72-45.11c-5.43-3.55-17.96-23.81-17.96-23.81,0,0,7.89.03-3.15-7.2"/>
          <path class="cls-3" d="M479.25,235.43s-2.7-5.71-6.44-12.87c-3.74-7.16-12.75-17.5-15.03-21.31s-3.52-20.2-7.75-24.28-17.4-42.63-17.4-42.63c-13.25-14.43-13.34-20.72-14.67-24.22-1.33-3.5-25.22-30.64-25.22-30.64l3.93-1.72,20.72,25.46s-6.72-12.11-7.9-68.09l8.92-3.9s-4.73,40.12-.78,41.67,2.19-13.42,21.08-21.26l2.02,4.63s-13.08,9.19-16.13,16.24-.28,19.93-.28,19.93l14.28,31.74-.04,9.73s12.97,22.2,12.48,26.7,31.46,73.4,31.46,73.4l-3.26,1.42Z"/>
          <path class="cls-3" d="M421.81,92.31l-2.39,2.47,14.17,22.6-7.75-4.17-1.73,2.59s17.26,18.93,21.78,25.06c4.52,6.13,7.68,8.22,7.68,8.22l6.03,11.94s.1,18.52,10.38,28.7c10.28,10.18,19.68,42.43,19.68,42.43l6.86-3-8.02-15.08-10.91-26.37-11.69-28.63-3.19-4.97s9.45-13.27,11.01-25.43l-2.28-5.23s-5.97,19.21-9.02,18.3c-3.05-.91-9.64-10.69-9.64-10.69l-14.18-5.27-16.78-33.49Z"/>
          <path class="cls-3" d="M492.82,228.48c-6.99-13.18-13.91-32.13-13.91-32.13-4.45-5.82-9.92-22.08-10.73-25.5s-2.14-6.45-5.87-8.77c-3.73-2.31-9.19-21.04-9.19-21.04,0,0-20.72-15.32-21.23-20.54s-1.84-9.82-3.79-15.22c-1.95-5.41-18.62-28.9-18.62-28.9,0,0-16.46-6.83-25.21-7.23-8.75-.4-24.22-12.43-24.22-12.43l6.29-2.84s9.55,8.55,17.61,10.23,20.77,4.71,20.77,4.71l-17.88-26.19,5.26-2.3s35.08,53.49,39.25,58.34c4.16,4.85,5.82,16.11,7.4,17.87,1.59,1.76,9.37,8.98,10.43,7.97s-7.98-22.93-8.1-24.78,6.97-21.43,6.81-30.21l4.05,9.26s-5.16,17.78-5.4,21.28,9.15,25,8.32,29.31,5.71,20.24,8.3,22.11c2.59,1.87,5.87,3.77,5.87,3.77,0,0,5.79,26.95,8.14,28.91s5.13,4.26,6.71,12.23,13.36,30.26,13.36,30.26l-4.39,1.79Z"/>
          <path class="cls-5" d="M508.75,222.57s-8.4-25.3-14.15-32.39c-5.75-7.09-11.74-29.56-11.74-29.56l-4.18-20.57,30.76,46.24,4.34,34.08-5.03,2.2Z"/>
          <rect class="cls-6" x="369.52" y="196.25" width="263.85" height="65.5" transform="translate(-49.74 219.96) rotate(-23.61)"/>
          <rect class="cls-5" x="395.27" y="255.18" width="263.85" height="65.5" transform="translate(-71.18 235.2) rotate(-23.61)"/>
          <g>
            <polygon class="cls-5" points="565.03 204.34 565.73 204.03 569.03 211.59 569.48 211.39 570.2 213.04 565.98 214.88 562.06 205.9 562.71 204.25 565.03 204.34"/>
            <rect class="cls-4" x="550.5" y="204.76" width="11.84" height="3.19" transform="translate(-36.07 240.08) rotate(-23.61)"/>
            <polygon class="cls-3" points="533 213.29 522.05 188.24 545.7 177.91 552.58 184.41 555.74 191.64 559.31 193.04 563.52 202.68 533.87 215.28 533 213.29"/>
            <path class="cls-12" d="M548.1,184.08c3.62,1.75,7,10.41,7,10.41-3.5,1.82-10.82,3.34-13.32,3.82-.5.1-1-.17-1.21-.63l-3.78-8.65,11.31-4.94Z"/>
            <g>
              <g class="cls-13">
                <g>
                  <polygon class="cls-5" points="547.2 184.42 552.26 194.89 555.23 194.38 552.62 189.03 550.07 185.48 548.2 184.03 547.2 184.42"/>
                  <polygon class="cls-4" points="555.23 194.38 552.4 194.39 547.91 184.11 546.18 184.87 550.75 195.31 547.34 197.03 548.12 197.7 555.1 196.08 555.23 194.38"/>
                </g>
              </g>
              <path class="cls-9" d="M548.1,184.08c3.62,1.75,7,10.41,7,10.41-3.5,1.82-10.82,3.34-13.32,3.82-.5.1-1-.17-1.21-.63l-3.78-8.65,11.31-4.94Z"/>
            </g>
            <polygon class="cls-5" points="563.35 209.1 555.63 212.47 553.03 208.69 561.54 204.97 563.35 209.1"/>
            <path class="cls-4" d="M556.96,215.71l1.27,2.9,8.41-3.67-4.14-9.48,2.54-1.11-1.73-.57-.39-.88-1.55.68.54,1.24-.65.28,1.81,4.13-6.68,2.92s-.08-.22-.26-.57c-1.96-3.87-6.63-5.49-10.61-3.76l-12.52,5.47,1.27,2.91,12.58-5.23,10.11,4.75Z"/>
            <path class="cls-7" d="M545.47,211.29c-.2.09-10.29,4.5-10.29,4.5l.42.95-4.62,2.02-.46-1.05-55.31,24.17,3.34,1.76,5.06,4.12,57.31-25.04,1.16-.51,14.89-6.51c-.09-.32-.19-.63-.32-.94-1.69-3.87-6.69-5.43-11.16-3.47Z"/>
            <g>
              <path class="cls-5" d="M466.92,254.5l-.67-.42-.18-6,1.02-2.46,2.6-1.35s.91,2.29.87,2.3-1.48,4.54-1.48,4.54l.47,2.77-2.64.61Z"/>
              <path class="cls-4" d="M477.99,240.95c6.53,2.07,7.96,7.91,7.96,7.91l.73-.32c-2.21-6.75-7.83-8.25-7.83-8.25l-1.17.35.31.31Z"/>
              <path class="cls-7" d="M468.67,253.65l-1.89.83s3.77,5.84,9.52,4.48l-.54-1.23-7.09-4.08Z"/>
              <circle class="cls-5" cx="475.99" cy="249.83" r="8.39"/>
              <circle class="cls-4" cx="475.79" cy="249.76" r="5.94"/>
              <circle class="cls-5" cx="475.79" cy="249.76" r="4.5"/>
              <circle class="cls-4" cx="475.79" cy="249.76" r="2.62"/>
              <polygon class="cls-5" points="475.93 248.44 474.72 248.97 474.57 250.29 475.64 251.08 476.85 250.55 477 249.23 475.93 248.44"/>
              <circle class="cls-5" cx="473.93" cy="245.88" r=".47"/>
              <circle class="cls-5" cx="477.38" cy="253.78" r=".47"/>
              <circle class="cls-5" cx="471.88" cy="251.63" r=".47"/>
              <circle class="cls-5" cx="471.45" cy="248.28" r=".47"/>
              <circle class="cls-5" cx="477.52" cy="245.62" r=".47"/>
              <circle class="cls-5" cx="473.92" cy="253.95" r=".47"/>
              <circle class="cls-5" cx="480" cy="251.3" r=".47"/>
              <circle class="cls-5" cx="479.97" cy="248.09" r=".47"/>
            </g>
            <g>
              <path class="cls-4" d="M540.4,214.65c-2.92,6.2.4,11.21.4,11.21l-.73.32c-3.45-6.21-.74-11.35-.74-11.35l1.06-.62.02.44Z"/>
              <circle class="cls-5" cx="548.28" cy="219.22" r="8.39"/>
              <circle class="cls-4" cx="548.37" cy="219.02" r="5.94"/>
              <circle class="cls-5" cx="548.37" cy="219.02" r="4.5"/>
              <circle class="cls-4" cx="548.37" cy="219.02" r="2.62"/>
              <polygon class="cls-5" points="547.3 218.23 548.51 217.7 549.58 218.49 549.43 219.81 548.22 220.34 547.15 219.55 547.3 218.23"/>
              <circle class="cls-5" cx="546.78" cy="215.02" r=".47"/>
              <circle class="cls-5" cx="550.23" cy="222.93" r=".47"/>
              <circle class="cls-5" cx="552.39" cy="217.42" r=".47"/>
              <circle class="cls-5" cx="550.23" cy="214.83" r=".47"/>
              <circle class="cls-5" cx="544.15" cy="217.49" r=".47"/>
              <circle class="cls-5" cx="552.71" cy="220.5" r=".47"/>
              <circle class="cls-5" cx="546.63" cy="223.16" r=".47"/>
              <circle class="cls-5" cx="544.3" cy="220.96" r=".47"/>
            </g>
            <polygon class="cls-5" points="449.97 256.13 450.89 258.22 451.73 257.86 452.04 258.56 450.42 259.27 449.7 257.62 449.97 256.13"/>
            <polygon class="cls-4" points="449.89 255.87 447.65 256.85 450.02 262.27 451.78 261.51 450.17 257.83 449.89 255.87"/>
            <polygon class="cls-4" points="450.24 256.01 451.59 259.08 466.72 255.14 465.74 252.9 466.27 249.12 450.24 256.01"/>
            <rect class="cls-7" x="448.56" y="251.44" width="10.2" height="3.15" transform="translate(-63.35 202.83) rotate(-23.61)"/>
            <path class="cls-4" d="M467.35,245.56c-2.92,6.2.4,11.21.4,11.21l-.73.32c-3.45-6.21-.74-11.35-.74-11.35l1.06-.62.02.44Z"/>
            <rect class="cls-3" x="430.24" y="193.77" width="96.14" height="45.08" transform="translate(-46.6 209.63) rotate(-23.61)"/>
            <rect class="cls-4" x="494.85" y="227.24" width="41.48" height="8.25" transform="translate(-49.51 225.82) rotate(-23.61)"/>
            <path class="cls-5" d="M541.81,204.84l1.02,2.33,4.42-1.93s-.64-1.62-2.19-1.54-3.25,1.14-3.25,1.14Z"/>
            <line class="cls-9" x1="525.83" y1="186.59" x2="536.77" y2="211.64"/>
            <line class="cls-9" x1="534.31" y1="188.51" x2="543.19" y2="208.83"/>
            <line class="cls-9" x1="524.12" y1="192.97" x2="549.77" y2="181.76"/>
            <line class="cls-9" x1="533.4" y1="203.92" x2="539.82" y2="201.12"/>
            <path class="cls-5" d="M549.94,192.46l-.91,1.82.23.52c.28.65,1.04.95,1.7.66h.02c.44-.2.64-.71.45-1.15l-.92-2.1-.57.25Z"/>
            <path class="cls-4" d="M566.58,205.23l2.07,4.75h0c-1.53-.48-2.78-1.6-3.42-3.07l-.4-.91,1.75-.76Z"/>
          </g>
        </g>
      </g>
      <rect class="cls-9" x="480.14" y="125.59" width="139.6" height="125.89" transform="translate(-29.48 235.99) rotate(-23.61)"/>
    </g>
  </g>
  <rect class="cls-8" x="168.22" y="135.56" width="500.43" height="332.94"/>
  <rect class="cls-7" x="194.34" y="163.52" width="445.7" height="227.37"/>
  <g class="cls-10">
    <g>
      <g>
        <path class="cls-5" d="M187.51,186.32l-4.55,2.57s12.45,22.11,13.49,30.85,4.64,19.68,4.64,19.68l-2.53,22.48-1.82,129.31h18.74s6.49-28.79,3.34-50.13c-3.15-21.34-7.2-40.88-7.2-40.88l-6.94-91.52-3.37.26v8.48s-9.15-26.22-13.82-31.11Z"/>
        <path class="cls-4" d="M194.31,150.55s11.03,67.87,7.02,75.58l4.47,17.57s.52-6.26,3.35-9.86,7.71-15.42,7.71-15.42v13.11s-6.94,10.62-6.94,13.92l3.64,29.77,8.44,48.16s-11.83,56.42-11.83,66.86l-3.34,1.12s-.26-23.54,3.34-38.6c3.6-15.06,3.6-36.06,1.54-54.74-2.06-18.68-3.56-32.82-3.56-32.82,0,0-2.56-15.42-6.83-28.02s-11-17.22-11-17.22l2.28-5.66,5.23,4.88-1.54-30.59-3.68-18.68,1.7-19.37Z"/>
        <path class="cls-5" d="M286.57,97.85s-5.56,38.56-9.48,44.73c-3.92,6.17-11.49,39.72-11.49,39.72,0,0-6.03,25.58-10.81,30.08s-7.16,41.6-7.16,41.6l4.82,5.59s6.23-41.02,23.87-64.16l-4.85-1.93s-10.52,24.68-11.17,24.68,6.03-24.68,6.03-24.68c0,0,8.87-37.92,11.7-40.62s38.18-16.45,38.18-16.45l-5.4-3.66,3.6-10.09-9.51.86s-5.14,6.08-6.68,6.34-16.97,11.44-16.97,11.44l10.15-42.67-4.83-.77Z"/>
        <path class="cls-5" d="M216.46,158.39l-2.7,4.24s23.99,41.26,22.99,47.04,5.07-38.72,5.07-38.72l-9.93-6.4,1.16,18.12-16.58-24.29Z"/>
        <path class="cls-5" d="M230.19,117.68s28.89,33.9,27.44,35.95-6.71,31.74-6.71,31.74l9.38.94,4.65-59.8h-4.65v18.77l-41.62-46.58h-7.39l18.9,18.99Z"/>
        <path class="cls-4" d="M265.6,166.1s13.4-16.97,16.64-19.28,34.62-12.34,42.84-18.9c8.22-6.56,28.75-27.08,28.75-27.08l-12.88-1.45s-12.66,17.74-17.68,20.44-11.86,6.68-11.86,6.68l6.78-25.67h-8.86s-5.51,32.09-7.54,31.9-19.19,7.91-24.3,12.15c-5.11,4.24-11.63,11.18-11.63,11.18l-.26,10.03Z"/>
        <path class="cls-5" d="M226.07,193.48s-8.84,26.22-13.85,32.01,1.93,40.49,1.93,40.49c0,0,3.47,17.44-1.16,22.99-4.63,5.55,5.25,42.25,5.25,42.25l-2.55,57.86,4.52,1.17,3.58-84.87,3.18-57.43-6.26-24.51,6.26-20.31-.89-9.64Z"/>
        <path class="cls-4" d="M223.79,241.22s10.8-30.77,8.22-37.33,4.12-42.02,4.12-42.02c0,0-6.17-3.08-18.9-8.23-12.73-5.14-27.49-12.26-27.49-12.26l-.11-7.33s29.92,6.22,31.85,8.15,13.88,14.27,14.65,13.11-13.11-37.4-13.11-37.4l-14.65-20.05h13.11s21.21,47.82,21.59,50.9,7.76,12.32,11.21,36.63l11.33-38.94,4.57-1.16s-7.67,46.27-9.86,48.59-5.51,7.33-5.51,7.33c0,0,4.21,2.7,3.96,8.48s-10.24,24.07-9.29,31.51,5.34,130.07,5.34,130.07l-3.87,18.96-10.94-1.14,1.54-78.17-10.03-38.86-5.43-28.83-2.28-1.99Z"/>
        <path class="cls-5" d="M246.14,234.36c-1.91-4.37,6.32-23.65,6.32-23.65l-7.2-2.31-3.86,9.25,3.86-37.4c-2.15,1.07-8.19,2.45-8.48,3.98-.21,1.11-1.84,10.12-1.98,11.24-.05.39,0,.91-.12,1.29-.04.12-.06.22-.07.3,1.17,1.67-.53,3.82-2.41,3.74,1.56,10.13-2.3,31.48-10.08,35.61,0,0,0,28.02-2.06,26.74-2.06-1.29-16.38-10.89-20.37-10.97l1.34,8.95s28.02,16.65,31.62,24.25c3.6,7.59,7.69,27.51,4.88,33.11-2.82,5.59-8.22,30.98-5.65,36.93,2.57,5.94-.77,33.39-.77,33.39l11.05,1.28s-3.08-31.86-2.31-42.76c.77-10.9,7.2-29.16,6.17-36.48-1.03-7.33-4.88-29.32-5.14-38.76-.26-9.44,7.16-33.35,5.25-37.72Z"/>
        <path class="cls-4" d="M644.97,198.67l4.55,2.57s-12.45,22.11-13.49,30.85-4.64,19.68-4.64,19.68l2.53,22.48,1.82,129.31h-18.74s-6.49-28.79-3.34-50.13c3.15-21.34,7.2-40.88,7.2-40.88l6.94-91.52,3.37.26v8.48s9.15-26.22,13.82-31.11Z"/>
        <path class="cls-5" d="M577.8,271.92s-6.07-27.53-13.82-34.98c-7.75-7.46-6.54-12.34-6.54-12.34l11.64,13.37-6.71-20.05,2.62,1.54s11.59,23.32,10.05,30.08c-1.55,6.75,7.73,14.99,7.73,14.99l-4.97,7.39Z"/>
        <path class="cls-5" d="M492.99,113.2s27.44,32.99,44.7,44.56l-22.82-13.88-3.2,5.91s24.84,7.71,29.82,17.74,33.56,40.62,33.56,40.62l2.76,28.79,2.08,165.5,11.31-1.01-6.68-178.63-1.74-10.28-14.88-34.96-14.2-17.74-46.29-46.53-14.4-.09Z"/>
        <path class="cls-5" d="M598.65,111.74s-4.88,40.62-6.94,41.65-10.8-33.93-10.8-33.93l-1.54,20.57-13.11-26.94h-6.83s10.94,17.94,12.22,22.31,12.85,20.82,12.85,20.82l8.48,9.77,7.46-12.08,5.66-40.82-7.46-1.34Z"/>
        <path class="cls-5" d="M620.63,113.08s-6.56,55-13.5,66.91c-6.94,11.92-8.48,32.01-8.48,32.01,0,0,12.22,21.78,9.97,32.87l3.57,8.66,3.94-40.25,7.2-34.71-6.43.77-3.08,23.39s-4.63,8.74-5.91,7.71,6.43-38.3,6.43-38.3l14.4-58.96-8.1-.11Z"/>
        <path class="cls-5" d="M638.17,162.9s-11.03,67.87-7.02,75.58l-4.47,17.57s-.52-6.26-3.35-9.86-7.71-15.42-7.71-15.42v13.11s6.94,10.62,6.94,13.92l-3.64,29.77-8.44,48.16s11.83,56.42,11.83,66.86l3.34,1.12s.26-23.54-3.34-38.6c-3.6-15.06-3.6-36.06-1.54-54.74,2.06-18.68,3.56-32.82,3.56-32.82,0,0,2.56-15.42,6.83-28.02s11-17.22,11-17.22l-2.28-5.66-5.23,4.88,1.54-30.59,3.68-18.68-1.7-19.37Z"/>
        <path class="cls-4" d="M574.6,183.98s-11.22-20.82-28.68-36.5c-17.45-15.68-34.97-40.1-34.97-40.1l-8.19,5.82s30.58,39.42,40.1,43.02c9.51,3.6,23.39,25.71,23.39,25.71,0,0-20.68-17.22-35.66-20.82v3.86s36.96,15.31,47.75,39.53c10.79,24.22,24.42,185.09,20.05,199.26h5.91l-2.72-83.02s-2.68-63.48-7.56-70.93-9.51-39.85-9.51-39.85c0,0,9.91,4.37,0-10.8"/>
        <path class="cls-4" d="M563.98,200.44l-4.55,2.57s12.45,22.11,13.49,30.85c1.05,8.74,4.64,19.68,4.64,19.68l-2.53,22.48-1.82,129.31h18.74s6.49-28.79,3.34-50.13c-3.15-21.34-7.2-40.88-7.2-40.88l-6.94-91.52-3.37.26v8.48s-9.15-26.22-13.82-31.11Z"/>
        <path class="cls-5" d="M588.11,403.72s-.26-8.68-1.03-19.74-6.43-29.04-7.2-35.09c-.77-6.05,6.68-27.37,3.6-34.82-3.08-7.46,1.54-63.24,1.54-63.24-8.74-25.45-5.4-33.42-5.14-38.56s-14.89-52.44-14.89-52.44h5.89l12.08,43.45s-1.8-18.94,27.51-90.07h13.37s-28.02,47.9-23.91,52.02,10.14-15.68,38.23-15.17v6.94s-21.52,4.37-29.24,11.57-11.31,24.94-11.31,24.94l.51,47.82-5.4,12.23s4.11,35.08,1.03,40.48-.77,109.71-.77,109.71h-4.88Z"/>
        <path class="cls-4" d="M594.54,191.95l-4.37,1.8,5.4,36.25-7.46-9.51-3.6,2.31s11.31,33.33,13.63,43.53c2.31,10.2,5.14,14.57,5.14,14.57l1.03,18.35s-10.06,23.37-2.72,41.84c7.34,18.47,1.44,64.24,1.44,64.24h10.28l-1.8-23.39.77-39.2,1.03-42.47-1.29-8.01s19.2-11.5,27.85-25.95v-7.84s-18.08,20.9-21.42,18.07c-3.34-2.83-6.26-18.76-6.26-18.76l-14.95-14.43-2.7-51.39Z"/>
        <path class="cls-4" d="M609.02,402.44c-1.54-20.44.17-48.1.17-48.1-2.4-9.77-.34-33.25.51-38s.86-9.3-2.57-14.27,0-31.54,0-31.54c0,0-17.65-30.68-15.42-37.53s3.08-13.37,3.6-21.25-7.54-46.62-7.54-46.62c0,0-16.97-17.65-27.76-22.97s-23.65-28.97-23.65-28.97l9.48-.11s7.32,16.01,16.54,22.57c9.22,6.56,23.55,17.35,23.55,17.35l-8.1-42.8h7.88s14.74,86.63,17.31,95.03c2.57,8.4-1.54,23.48-.51,26.56s6.86,16.45,8.74,15.77,2.57-33.25,3.43-35.65,20.57-23.14,25.19-34.28v13.88s-16.28,19.54-18.51,23.82-2.23,36.5-5.66,41.47c-3.43,4.97-3.94,28.62-1.71,32.39,2.23,3.77,5.31,7.98,5.31,7.98,0,0-7.54,37.11-5.66,40.87s4.11,8.19,1.71,19.09c-2.4,10.9.17,45.44.17,45.44l-6.51-.16Z"/>
        <path class="cls-4" d="M226.72,390.08c1.54-20.44-.17-48.1-.17-48.1,2.4-9.77.34-33.25-.51-38s-.86-9.3,2.57-14.27,0-31.54,0-31.54c0,0,17.65-30.68,15.42-37.53s-3.08-13.37-3.6-21.25,7.54-46.62,7.54-46.62c0,0,16.97-17.65,27.76-22.97s23.65-28.97,23.65-28.97l-9.48-.11s-7.32,16.01-16.54,22.57-23.55,17.35-23.55,17.35l8.1-42.8h-7.88s-14.74,86.63-17.31,95.03,1.54,23.48.51,26.56-6.86,16.45-8.74,15.77-2.57-33.25-3.43-35.65-24.03-23.6-28.65-34.74v13.88s19.74,20,21.97,24.28,2.23,36.5,5.66,41.47c3.43,4.97,3.94,28.62,1.71,32.39-2.23,3.77-5.31,7.98-5.31,7.98,0,0,7.54,37.11,5.66,40.87s-4.11,8.19-1.71,19.09-.17,45.44-.17,45.44l6.51-.16Z"/>
        <path class="cls-5" d="M632.33,403.75s3.34-36.47,0-48.56c-3.34-12.08,1.49-43.67,1.49-43.67l6.06-28.19,13.28,75.13-13.28,45.29h-7.54Z"/>
        <path class="cls-5" d="M534.2,198.12l-3.6,8.48s9,21.59,8.71,27.25c0,0-7.35-3.6-8.71-6.43,0,0-2.58,5.66-1.2,7.71s11.99,4.63,12.09,7.46-.52,30.85-.52,30.85l5.38-.51s1.18-28.02-.12-32.39c-1.31-4.37-12.03-42.42-12.03-42.42Z"/>
        <path class="cls-5" d="M552.51,271.51l.53-23,2.42-3.86s1.03,11.93,2.06,13.81-.7-24.86-.7-24.86l5.55,14.14-1.58,25.74-8.29-1.97Z"/>
        <path class="cls-5" d="M279.79,177.63s1.96,19.02,1.24,26.91c-.72,7.88,0,21.08,0,21.08,0,0-3.64-12-5.87-14.57l-1.08,6s5.25,16.62,7.11,17.65-3.86,4.11-4.86,7.37-2.25,20.22-2.25,20.22l4.85-.7s-.86-6.16.51-9.41,6.12-12.34,5.54-16.96-1.61-6.17-1.61-6.17c0,0,3.25-14.4,4.8-16.62s6.69-9.77,6.86-13.37,0-6.17,0-6.17l-2.96.6s-2.2,10.2-3.9,10.88-4.8-26.74-4.8-26.74h-3.59Z"/>
        <path class="cls-5" d="M265.86,260.61l-5.55-19.43,3.19-16.6.4-6.39,1.7-4.03,2.19,10.93-2.19,13.2s2.88-.86,3.39-5.66l1.55,1.54-3.46,8.87c-.79,2.03-.92,4.26-.37,6.37l2.93,11.15-3.78.03Z"/>
      </g>
      <rect class="cls-6" x="190.67" y="347.64" width="458.05" height="48.01"/>
      <g>
        <polygon class="cls-5" points="602.09 344.45 604.17 344.45 604.17 366.96 605.51 366.96 605.51 371.86 592.95 371.86 592.95 345.12 596.37 341.7 602.09 344.45"/>
        <rect class="cls-4" x="562.19" y="335.74" width="32.32" height="8.71"/>
        <polygon class="cls-3" points="512.21 331.82 512.21 257.25 582.63 257.25 592.73 281.02 592.73 302.56 600.13 309.96 600.13 338.66 512.21 337.77 512.21 331.82"/>
        <path class="cls-8" d="M581.89,275.29c7.13,8.32,6.14,33.67,6.14,33.67-10.74.73-30.71-3.48-37.49-5.01-1.36-.31-2.32-1.51-2.32-2.9v-25.76h33.67Z"/>
        <g>
          <g class="cls-15">
            <g>
              <polygon class="cls-5" points="579.27 275.17 580.48 306.87 588.46 308.85 587.78 292.6 585.29 280.97 582.2 275.29 579.27 275.17"/>
              <polygon class="cls-4" points="588.46 308.85 581.39 305.78 581.39 275.17 576.24 275.17 576.24 306.27 565.84 306.87 567.06 309.39 586.29 312.96 588.46 308.85"/>
            </g>
          </g>
          <path class="cls-9" d="M581.89,275.29c7.13,8.32,6.14,33.67,6.14,33.67-10.74.73-30.71-3.48-37.49-5.01-1.36-.31-2.32-1.51-2.32-2.9v-25.76h33.67Z"/>
        </g>
        <polygon class="cls-5" points="592.68 354.52 569.7 354.52 567.33 342.21 592.68 342.21 592.68 354.52"/>
        <path class="cls-4" d="M569.48,364.05v8.63h25.03v-28.24h7.58l-3.71-3.32v-2.63h-4.61v3.7h-1.93v12.3h-19.91s.04-.64-.02-1.71c-.66-11.81-10.59-20.98-22.42-20.98h-37.28v8.65l37.17.66,20.1,22.92Z"/>
        <path class="cls-7" d="M545.58,340.48h-30.65v2.84h-13.77v-3.14h-164.71l6.41,8.06,8.15,15.83h218.45c.13-.88.22-1.78.22-2.7,0-11.53-10.8-20.88-24.12-20.88Z"/>
        <g>
          <path class="cls-5" d="M301.96,362.69l-1.21-1.78,6.11-15.19,5.23-5.03,7.98-.52s-.22,6.71-.34,6.71-8.65,9.73-8.65,9.73l-1.85,7.44-7.28-1.37Z"/>
          <path class="cls-4" d="M344.44,340.89c14.07,12.31,11.26,28.47,11.26,28.47h2.17c1.85-19.3-10.55-29.19-10.55-29.19l-3.32-.4.44,1.13Z"/>
          <path class="cls-7" d="M307.27,362.48h-5.63s3.06,18.73,18.9,21.59v-3.65l-13.27-17.94Z"/>
          <circle class="cls-5" cx="329.75" cy="360.91" r="22.88"/>
          <circle class="cls-4" cx="329.3" cy="360.51" r="16.21"/>
          <circle class="cls-5" cx="329.3" cy="360.51" r="12.28"/>
          <circle class="cls-4" cx="329.3" cy="360.51" r="7.16"/>
          <polygon class="cls-5" points="331.11 357.38 327.49 357.38 325.69 360.51 327.49 363.65 331.11 363.65 332.92 360.51 331.11 357.38"/>
          <circle class="cls-5" cx="328.9" cy="348.77" r="1.29"/>
          <circle class="cls-5" cx="328.9" cy="372.32" r="1.29"/>
          <circle class="cls-5" cx="317.5" cy="360.91" r="1.29"/>
          <circle class="cls-5" cx="320.07" cy="352.07" r="1.29"/>
          <circle class="cls-5" cx="338.17" cy="352.07" r="1.29"/>
          <circle class="cls-5" cx="320.07" cy="368.96" r="1.29"/>
          <circle class="cls-5" cx="338.17" cy="368.96" r="1.29"/>
          <circle class="cls-5" cx="341.59" cy="360.91" r="1.29"/>
        </g>
        <g>
          <path class="cls-4" d="M529.24,343.34c-14.07,12.31-11.26,28.47-11.26,28.47h-2.17c-1.85-19.3,10.55-29.19,10.55-29.19l3.32-.4-.44,1.13Z"/>
          <circle class="cls-5" cx="543.94" cy="363.36" r="22.88"/>
          <circle class="cls-4" cx="544.38" cy="362.96" r="16.21"/>
          <circle class="cls-5" cx="544.38" cy="362.96" r="12.28"/>
          <circle class="cls-4" cx="544.38" cy="362.96" r="7.16"/>
          <polygon class="cls-5" points="542.57 359.82 546.19 359.82 548 362.96 546.19 366.09 542.57 366.09 540.76 362.96 542.57 359.82"/>
          <circle class="cls-5" cx="544.78" cy="351.22" r="1.29"/>
          <circle class="cls-5" cx="544.78" cy="374.76" r="1.29"/>
          <circle class="cls-5" cx="556.18" cy="363.36" r="1.29"/>
          <circle class="cls-5" cx="553.61" cy="354.52" r="1.29"/>
          <circle class="cls-5" cx="535.52" cy="354.52" r="1.29"/>
          <circle class="cls-5" cx="553.61" cy="371.4" r="1.29"/>
          <circle class="cls-5" cx="535.52" cy="371.4" r="1.29"/>
          <circle class="cls-5" cx="532.09" cy="363.36" r="1.29"/>
        </g>
        <polygon class="cls-5" points="257.81 348.23 257.81 354.47 260.3 354.47 260.3 356.58 255.47 356.58 255.47 351.67 257.81 348.23"/>
        <polygon class="cls-4" points="257.89 347.49 251.21 347.49 251.21 363.65 256.44 363.65 256.44 352.71 257.89 347.49"/>
        <polygon class="cls-4" points="258.61 348.23 258.61 357.38 300.75 364.05 300.75 357.38 306.22 348.52 258.61 348.23"/>
        <rect class="cls-7" x="256.52" y="340.17" width="27.83" height="8.6"/>
        <path class="cls-4" d="M312.81,340.8c-14.07,12.31-11.26,28.47-11.26,28.47h-2.17c-1.85-19.3,10.55-29.19,10.55-29.19l3.32-.4-.44,1.13Z"/>
        <rect class="cls-3" x="240.99" y="218.13" width="262.35" height="123.01"/>
        <rect class="cls-4" x="392.33" y="346.75" width="113.2" height="22.52"/>
        <path class="cls-5" d="M543.49,320.33v6.93h13.17s.17-4.75-3.79-6.24-9.37-.69-9.37-.69Z"/>
        <line class="cls-9" x1="523.45" y1="257.25" x2="523.45" y2="331.82"/>
        <line class="cls-9" x1="542.57" y1="271.31" x2="542.57" y2="331.82"/>
        <line class="cls-9" x1="512.21" y1="271.31" x2="588.61" y2="271.31"/>
        <line class="cls-9" x1="523.45" y1="308.85" x2="542.57" y2="308.85"/>
        <path class="cls-5" d="M577.33,298.25l-4.26,3.57v1.54c0,1.94,1.57,3.52,3.52,3.52h.05c1.31,0,2.38-1.06,2.38-2.38v-6.24h-1.68Z"/>
        <path class="cls-4" d="M604.99,348.36v14.14h0c-3.3-2.88-5.2-7.05-5.2-11.43v-2.71h5.2Z"/>
      </g>
    </g>
  </g>
  <rect class="cls-9" x="193.17" y="163.52" width="446.87" height="227.37"/>
  <path class="cls-5" d="M491.9,110.22l-10.36-29.21c-.39-1.09-1.65-1.69-2.83-1.36l-24.03,6.76c-1.2.34-1.86,1.52-1.45,2.62l22.88,62.73c.41,1.13,1.76,1.72,2.96,1.3l9.9-3.43c1.11-.38,1.69-1.49,1.33-2.54l-12.16-35.58c-.37-1.09-1.64-1.71-2.82-1.39l-.96.27c-1.19.33-1.85,1.48-1.48,2.57l9.81,29.2c.35,1.04-.23,2.14-1.33,2.53h0c-1.21.42-2.57-.18-2.97-1.32l-17.86-50.44c-.39-1.11.28-2.29,1.5-2.61l12.89-3.39c1.18-.31,2.42.3,2.79,1.38l8.26,23.66c.39,1.13,1.72,1.74,2.93,1.34l1.64-.54c1.14-.37,1.74-1.51,1.36-2.57Z"/>
</svg>